# xmcd
#
# Track frame offsets: 
#        150
#        14602
#        31199
#        47478
#        63268
#        82287
#        98665
#        114361
#        128322
#        145140
#
# Disc length: 2138 seconds
#
# Revision: 0
# Processed by: cddbd v1.5.2PL0 Copyright (c) Steve Scherf et al.
# Submitted via: ExactAudioCopy v0.95b3
#
DISCID=7708580a
DTITLE=Angelique - Nu regret
DYEAR=2006
DGENRE=Dance
TTITLE0=Nu regret
TTITLE1=Ingerul meu
TTITLE2=Anotimpul vietii mele
TTITLE3=De-ar fi sa vii
TTITLE4=Sunt cu tine
TTITLE5=Mama
TTITLE6=Visez
TTITLE7=Ne vedem diseara
TTITLE8=Vremea trece
TTITLE9=Hai langa mine
EXTD=
EXTT0=
EXTT1=
EXTT2=
EXTT3=
EXTT4=
EXTT5=
EXTT6=
EXTT7=
EXTT8=
EXTT9=
PLAYORDER=
